<svg xmlns="http://www.w3.org/2000/svg" xmlns:xlink="http://www.w3.org/1999/xlink" width="1500" zoomAndPan="magnify" viewBox="0 0 1125 149.999998" height="200" preserveAspectRatio="xMidYMid meet" version="1.0"><defs><g/></defs><g fill="#fed136" fill-opacity="1"><g transform="translate(34.854919, 115.714285)"><g><path d="M 64.6875 -18.40625 L 24.671875 -18.40625 L 13.5 0 L -7.734375 0 L 47.875 -85.921875 L 67.515625 -85.921875 L 88.625 0 L 68.734375 0 Z M 61.375 -33.515625 L 54.125 -66.65625 L 33.875 -33.515625 Z M 61.375 -33.515625 "/></g></g></g><g fill="#fed136" fill-opacity="1"><g transform="translate(128.852175, 115.714285)"><g><path d="M 99.546875 -85.921875 L 82.359375 0 L 66.046875 0 L 34 -53.765625 L 23.203125 0 L 3.5625 0 L 20.75 -85.921875 L 37.1875 -85.921875 L 69.234375 -32.03125 L 79.90625 -85.921875 Z M 99.546875 -85.921875 "/></g></g></g><g fill="#fed136" fill-opacity="1"><g transform="translate(228.003325, 115.714285)"><g><path d="M 20.75 -85.921875 L 56.703125 -85.921875 C 65.460938 -85.921875 73.015625 -84.46875 79.359375 -81.5625 C 85.703125 -78.65625 90.570312 -74.5 93.96875 -69.09375 C 97.363281 -63.695312 99.0625 -57.359375 99.0625 -50.078125 C 99.0625 -40.097656 96.8125 -31.320312 92.3125 -23.75 C 87.8125 -16.175781 81.53125 -10.320312 73.46875 -6.1875 C 65.40625 -2.0625 56.097656 0 45.546875 0 L 3.5625 0 Z M 46.15625 -16.328125 C 52.863281 -16.328125 58.691406 -17.738281 63.640625 -20.5625 C 68.597656 -23.382812 72.382812 -27.269531 75 -32.21875 C 77.613281 -37.164062 78.921875 -42.753906 78.921875 -48.984375 C 78.921875 -55.441406 76.832031 -60.488281 72.65625 -64.125 C 68.488281 -67.769531 62.4375 -69.59375 54.5 -69.59375 L 37.4375 -69.59375 L 26.765625 -16.328125 Z M 46.15625 -16.328125 "/></g></g></g><g fill="#fed136" fill-opacity="1"><g transform="translate(329.363282, 115.714285)"><g><path d="M 89.359375 -59.28125 C 89.359375 -51.269531 87.1875 -44.398438 82.84375 -38.671875 C 78.507812 -32.941406 72.5 -28.890625 64.8125 -26.515625 L 79.78125 0 L 58.796875 0 L 45.296875 -24.0625 L 28.359375 -24.0625 L 23.5625 0 L 3.5625 0 L 20.75 -85.921875 L 55.734375 -85.921875 C 66.367188 -85.921875 74.628906 -83.585938 80.515625 -78.921875 C 86.410156 -74.265625 89.359375 -67.71875 89.359375 -59.28125 Z M 48.359375 -39.890625 C 54.992188 -39.890625 60.128906 -41.40625 63.765625 -44.4375 C 67.410156 -47.46875 69.234375 -51.804688 69.234375 -57.453125 C 69.234375 -61.535156 67.84375 -64.597656 65.0625 -66.640625 C 62.28125 -68.691406 58.3125 -69.71875 53.15625 -69.71875 L 37.4375 -69.71875 L 31.421875 -39.890625 Z M 48.359375 -39.890625 "/></g></g></g><g fill="#fed136" fill-opacity="1"><g transform="translate(419.556489, 115.714285)"><g><path d="M 37.3125 -69.96875 L 33.640625 -51.3125 L 73.53125 -51.3125 L 70.453125 -35.84375 L 30.4375 -35.84375 L 26.515625 -15.953125 L 73.40625 -15.953125 L 70.09375 0 L 3.5625 0 L 20.75 -85.921875 L 85.671875 -85.921875 L 82.359375 -69.96875 Z M 37.3125 -69.96875 "/></g></g></g><g fill="#fed136" fill-opacity="1"><g transform="translate(501.896138, 115.714285)"><g><path d="M 33.515625 1.46875 C 26.722656 1.46875 20.21875 0.570312 14 -1.21875 C 7.78125 -3.019531 2.785156 -5.3125 -0.984375 -8.09375 L 7.125 -23.4375 C 11.050781 -20.582031 15.46875 -18.375 20.375 -16.8125 C 25.28125 -15.257812 30.3125 -14.484375 35.46875 -14.484375 C 40.957031 -14.484375 45.296875 -15.382812 48.484375 -17.1875 C 51.679688 -18.988281 53.28125 -21.441406 53.28125 -24.546875 C 53.28125 -27.085938 52.007812 -29.03125 49.46875 -30.375 C 46.925781 -31.726562 42.875 -33.179688 37.3125 -34.734375 C 31.75 -36.367188 27.207031 -37.941406 23.6875 -39.453125 C 20.164062 -40.972656 17.113281 -43.242188 14.53125 -46.265625 C 11.957031 -49.296875 10.671875 -53.3125 10.671875 -58.3125 C 10.671875 -64.113281 12.285156 -69.222656 15.515625 -73.640625 C 18.753906 -78.066406 23.335938 -81.460938 29.265625 -83.828125 C 35.203125 -86.203125 42.097656 -87.390625 49.953125 -87.390625 C 55.765625 -87.390625 61.25 -86.753906 66.40625 -85.484375 C 71.5625 -84.222656 75.984375 -82.40625 79.671875 -80.03125 L 72.171875 -64.8125 C 68.984375 -67.019531 65.382812 -68.675781 61.375 -69.78125 C 57.363281 -70.882812 53.191406 -71.4375 48.859375 -71.4375 C 43.210938 -71.4375 38.75 -70.453125 35.46875 -68.484375 C 32.195312 -66.523438 30.5625 -63.992188 30.5625 -60.890625 C 30.5625 -59.003906 31.253906 -57.425781 32.640625 -56.15625 C 34.035156 -54.882812 35.796875 -53.859375 37.921875 -53.078125 C 40.054688 -52.304688 43.046875 -51.390625 46.890625 -50.328125 C 52.367188 -48.859375 56.867188 -47.363281 60.390625 -45.84375 C 63.910156 -44.332031 66.914062 -42.125 69.40625 -39.21875 C 71.90625 -36.3125 73.15625 -32.484375 73.15625 -27.734375 C 73.15625 -21.847656 71.519531 -16.710938 68.25 -12.328125 C 64.976562 -7.953125 60.351562 -4.554688 54.375 -2.140625 C 48.40625 0.265625 41.453125 1.46875 33.515625 1.46875 Z M 33.515625 1.46875 "/></g></g></g><g fill="#fed136" fill-opacity="1"><g transform="translate(580.186279, 115.714285)"><g/></g></g><g fill="#fed136" fill-opacity="1"><g transform="translate(614.913734, 115.714285)"><g><path d="M 33.515625 1.46875 C 26.722656 1.46875 20.21875 0.570312 14 -1.21875 C 7.78125 -3.019531 2.785156 -5.3125 -0.984375 -8.09375 L 7.125 -23.4375 C 11.050781 -20.582031 15.46875 -18.375 20.375 -16.8125 C 25.28125 -15.257812 30.3125 -14.484375 35.46875 -14.484375 C 40.957031 -14.484375 45.296875 -15.382812 48.484375 -17.1875 C 51.679688 -18.988281 53.28125 -21.441406 53.28125 -24.546875 C 53.28125 -27.085938 52.007812 -29.03125 49.46875 -30.375 C 46.925781 -31.726562 42.875 -33.179688 37.3125 -34.734375 C 31.75 -36.367188 27.207031 -37.941406 23.6875 -39.453125 C 20.164062 -40.972656 17.113281 -43.242188 14.53125 -46.265625 C 11.957031 -49.296875 10.671875 -53.3125 10.671875 -58.3125 C 10.671875 -64.113281 12.285156 -69.222656 15.515625 -73.640625 C 18.753906 -78.066406 23.335938 -81.460938 29.265625 -83.828125 C 35.203125 -86.203125 42.097656 -87.390625 49.953125 -87.390625 C 55.765625 -87.390625 61.25 -86.753906 66.40625 -85.484375 C 71.5625 -84.222656 75.984375 -82.40625 79.671875 -80.03125 L 72.171875 -64.8125 C 68.984375 -67.019531 65.382812 -68.675781 61.375 -69.78125 C 57.363281 -70.882812 53.191406 -71.4375 48.859375 -71.4375 C 43.210938 -71.4375 38.75 -70.453125 35.46875 -68.484375 C 32.195312 -66.523438 30.5625 -63.992188 30.5625 -60.890625 C 30.5625 -59.003906 31.253906 -57.425781 32.640625 -56.15625 C 34.035156 -54.882812 35.796875 -53.859375 37.921875 -53.078125 C 40.054688 -52.304688 43.046875 -51.390625 46.890625 -50.328125 C 52.367188 -48.859375 56.867188 -47.363281 60.390625 -45.84375 C 63.910156 -44.332031 66.914062 -42.125 69.40625 -39.21875 C 71.90625 -36.3125 73.15625 -32.484375 73.15625 -27.734375 C 73.15625 -21.847656 71.519531 -16.710938 68.25 -12.328125 C 64.976562 -7.953125 60.351562 -4.554688 54.375 -2.140625 C 48.40625 0.265625 41.453125 1.46875 33.515625 1.46875 Z M 33.515625 1.46875 "/></g></g></g><g fill="#fed136" fill-opacity="1"><g transform="translate(693.203875, 115.714285)"><g><path d="M 20.75 -85.921875 L 40.75 -85.921875 L 23.5625 0 L 3.5625 0 Z M 20.75 -85.921875 "/></g></g></g><g fill="#fed136" fill-opacity="1"><g transform="translate(733.453399, 115.714285)"><g><path d="M 37.3125 -69.96875 L 33.640625 -51.3125 L 73.53125 -51.3125 L 70.453125 -35.84375 L 30.4375 -35.84375 L 26.515625 -15.953125 L 73.40625 -15.953125 L 70.09375 0 L 3.5625 0 L 20.75 -85.921875 L 85.671875 -85.921875 L 82.359375 -69.96875 Z M 37.3125 -69.96875 "/></g></g></g><g fill="#fed136" fill-opacity="1"><g transform="translate(815.793049, 115.714285)"><g><path d="M 89.359375 -59.28125 C 89.359375 -51.269531 87.1875 -44.398438 82.84375 -38.671875 C 78.507812 -32.941406 72.5 -28.890625 64.8125 -26.515625 L 79.78125 0 L 58.796875 0 L 45.296875 -24.0625 L 28.359375 -24.0625 L 23.5625 0 L 3.5625 0 L 20.75 -85.921875 L 55.734375 -85.921875 C 66.367188 -85.921875 74.628906 -83.585938 80.515625 -78.921875 C 86.410156 -74.265625 89.359375 -67.71875 89.359375 -59.28125 Z M 48.359375 -39.890625 C 54.992188 -39.890625 60.128906 -41.40625 63.765625 -44.4375 C 67.410156 -47.46875 69.234375 -51.804688 69.234375 -57.453125 C 69.234375 -61.535156 67.84375 -64.597656 65.0625 -66.640625 C 62.28125 -68.691406 58.3125 -69.71875 53.15625 -69.71875 L 37.4375 -69.71875 L 31.421875 -39.890625 Z M 48.359375 -39.890625 "/></g></g></g><g fill="#fed136" fill-opacity="1"><g transform="translate(905.986223, 115.714285)"><g><path d="M 89.359375 -59.28125 C 89.359375 -51.269531 87.1875 -44.398438 82.84375 -38.671875 C 78.507812 -32.941406 72.5 -28.890625 64.8125 -26.515625 L 79.78125 0 L 58.796875 0 L 45.296875 -24.0625 L 28.359375 -24.0625 L 23.5625 0 L 3.5625 0 L 20.75 -85.921875 L 55.734375 -85.921875 C 66.367188 -85.921875 74.628906 -83.585938 80.515625 -78.921875 C 86.410156 -74.265625 89.359375 -67.71875 89.359375 -59.28125 Z M 48.359375 -39.890625 C 54.992188 -39.890625 60.128906 -41.40625 63.765625 -44.4375 C 67.410156 -47.46875 69.234375 -51.804688 69.234375 -57.453125 C 69.234375 -61.535156 67.84375 -64.597656 65.0625 -66.640625 C 62.28125 -68.691406 58.3125 -69.71875 53.15625 -69.71875 L 37.4375 -69.71875 L 31.421875 -39.890625 Z M 48.359375 -39.890625 "/></g></g></g><g fill="#fed136" fill-opacity="1"><g transform="translate(996.179397, 115.714285)"><g><path d="M 64.6875 -18.40625 L 24.671875 -18.40625 L 13.5 0 L -7.734375 0 L 47.875 -85.921875 L 67.515625 -85.921875 L 88.625 0 L 68.734375 0 Z M 61.375 -33.515625 L 54.125 -66.65625 L 33.875 -33.515625 Z M 61.375 -33.515625 "/></g></g></g></svg>